<svg xmlns="http://www.w3.org/2000/svg" id="Lager_1" viewBox="0 0 63.98 62.06"><defs><style>.cls-1{fill:#fff}</style></defs><path d="M53.02 26.5h10.96V5.15h-6.4V0l-1.05.14c-2.62.35-4.74 1.49-6.2 3.32a5.26 5.26 0 0 0-2.76-1.43c-2.44-.42-4.77.92-5.65 3.09-1.5-.28-3.01.07-4.18.99-1.25.99-1.93 2.41-1.95 4a5 5 0 0 0-3.04 2.32c-.77 1.32-.93 2.81-.48 4.21-1.69 1.13-2.48 2.99-2.19 5.06H21.3c-2.49 0-4.83.83-6.67 2.36-3.38-2.07-8.81-1.77-11.65.76C1.12 26.47.06 28.7.05 30.96L0 47.04l.89.04c1.91.08 5.49-.51 7.14-2.05.85-.8 1.44-1.53 1.89-2.36.32-.6.59-1.19.8-1.78-.03 1.31-.39 2.16-1.2 2.82l-.34.28v18.05l7.56.03 4.3-.03v-13.2c1.59-1.05 2.98-2.24 4.22-3.65 1.01-1.17 1.76-2.31 2.33-3.55 2.95 1.43 4.78 2.26 8.21 2.42l2.67 17.98H50.9l-.74-3.42c-.09-.37-.16-.73-.22-1.08-.21-1.06-.42-2.16-.99-3.23l-.53-10.23c0-.97.3-1.85.97-2.88l1.77-2.71c1.31-2.29 1.89-5.21 1.61-8.21-.08-.89-.25-1.74-.41-2.55-.06-.31-.12-.61-.18-.93l-.25-1.35-.15-1.74V23c0-.15 0-.3.01-.45l1.24 3.95Zm-4.91-14.28-.38.82c-1.1 2.37-1.05 4.74.14 6.88-1.18 2.58-1.07 4.69-.45 7.57l.02.1c.27 1.24.52 2.41.57 3.63.1 2.06-.36 3.88-1.36 5.41l-1.54 2.36c-.9 1.37-1.39 2.95-1.49 4.91l.53 12.02.19.24c.25.32.35.65.43 1.08h-2.19l-2-13.38-.69-4.5-3.41-.05c-3.15-.04-4.79-.87-7.6-2.38.14-1.18.13-2.48-.05-3.59l-.14-.89-4.55.56-.02 3.42c-.17 1.7-.8 3.32-1.86 4.81-.92 1.29-1.95 2.3-3.13 3.09l-2.92 1.95.04.96v9.85l-.01.16h-2.25V45.92c1.01-1.47 1.5-2.88 1.51-4.3l.02-9.06c.09-.99.24-2.03.74-2.96.94-1.76 2.85-3.05 4.55-3.05l16.83-.03.1-.82c.55-4.61 1.69-8.02 3.58-10.74 2.47-3.5 5.85-5.14 10.33-5.05l.85.02.09-.85c.11-.96.34-1.71.78-2.39v.58c.06.5.06.99.06 1.55v1.09h5.74v11.81h-2.74l-1.32-3.01-.66.05c-1.01.08-1.86-.33-2.39-1.18-.62-.95-.25-2.03.03-2.58l.44-.88-4.43-1.89ZM7.47 27.93c-.58.97-.87 2.01-.89 3.1l-.1 6.86c-.08 1.77-.73 2.21-1.66 2.69v-9.46c.05-.65.2-2.36 2.65-3.18Z" class="cls-1"/><path d="M56.68 15.31c.78 0 1.42-.63 1.42-1.42s-.63-1.42-1.42-1.42-1.42.63-1.42 1.42.63 1.42 1.42 1.42" class="cls-1"/></svg>