<svg xmlns="http://www.w3.org/2000/svg" id="Lager_1" viewBox="0 0 51.88 53.99"><defs><style>.cls-1{fill:#fff}</style></defs><path d="M16.19 53.99c-3.59-.25-6.96-1.69-9.69-4.15C2.7 46.38.88 41.37 1.52 36.1c.51-4.17 2.2-7.59 3.89-10.74l.55-1.01c.6-1.13 1.18-2.19 1.69-3.35.32-.71.51-1.42.56-2.18.04-.6-.18-1.08-.64-1.43-.32-.23-.71-.35-1.15-.35-.65 0-1.4.26-2.06.71l-2.47 1.69-.6-.85C.6 17.62.21 16.52.09 15.25c-.29-2.86.1-5.34 1.25-7.81.65-1.37 1.51-2.59 2.63-3.72l.58-.54C6.77 1.16 9.97 0 13.35 0a15.516 15.516 0 0 1 6.23 1.32c3.5 1.52 5.96 3.84 7.75 7.3 1.14 2.2 2.32 5.53 2.2 8.28 0 0-.67 4.48-2.04 7.06l-.15.15.2.49h.27c.08 0 .17-.02.45-.08l.13-.03c2.85-.68 5.83-3.25 7.11-4.34.21-.18.36-.31.44-.37l.02-.02.27-.27-.28-.45c-.46-.7-1.87-2.8-.91-4.96.3-.32.64-.47 1.01-.47.1 0 .2.01.28.03l.08.02.08-.02q.105-.03.24-.03c1.72 0 5.28 3.07 6.08 5.73l.06.21.21.06c2.06.58 3.71 1.54 5.06 2.95 2.39 2.6 3.12 5.88 3.66 9.01l.06.38-.19.33c-.38.68-.85 1.17-1.31 1.64-.75.78-3.44 1.51-5.21 2-.77.21-1.44.39-1.87.55l-.05.02-.05.03c-.08.06-1.89 1.42-1.52 3.6.26 1.57 1.45 2.12 2.38 2.12.48 0 .93-.14 1.24-.38.61-.48.74-1.45.76-2l1.26-.11 2.31-.09v.74c0 1.03 0 2.58-2.04 4.39-.81.71-2.12 1.08-3.9 1.08-1.55 0-3.07-.27-4.08-.5-1.22-.28-6.29-1.68-6.35-1.69l-.66-.18.73 2.81 1.28.31c.96.23 1.8.73 2.42 1.42.84.94 1.19 1.84 1.21 3.12v.06l.02.06v2.73H16.17ZM39.1 24.31c-.43 0-1.08.08-1.76.46-.95.52-1.88 1.54-2.19 1.88l-.07.08c-.09.11-.23.26-.35.39l-.2.21c-1.99 1.69-7.26 2.78-9.67 2.92-2.14.12-3.68.49-4.98 1.19-3.19 1.7-5.23 4.86-5.46 8.44v1.56c.15 2.21 1.03 4.29 2.54 6.05l.12.14h6.03c1.29 0 2.52-.58 3.33-1.56h.05l.14-.22s.04-.09.06-.12q.36-.54.54-1.08c.1-.31.16-.62.18-.91.01-.04.03-.16.03-.25.01-.02.01-.12.01-.22 0-.35-.03-.64-.1-.92-.03-.14-.07-.28-.11-.42-.05-.14-.1-.27-.16-.41-.11-.24-.24-.47-.38-.69-.21-.35-.69-.91-1.74-1.64l3.17-4.13c.91.37 1.41.86 1.42.87.82.71 1.5 1.57 1.98 2.49.23.44.46.72.79.95l2.44.96c.27.11.5.2.71.29.6.26 1.07.46 1.9.6l.21.03.21-.76s-.22-.62-.25-1.2c-.03-.67.08-1.03.32-1.71.15-.42.75-1.02.96-1.22l.54-.49-.7-.19s-1.76-.48-3.02-1.14c-.85-.44-1.78-2.15-2.22-3.1l4.35-2.08c.94 1.42 2.11 2.17 3.76 2.43.4.06.8.09 1.19.09 1.38 0 2.6-.38 3.51-1.11l.2-.16-.06-.25c-.05-.22-.13-.44-.2-.68l-.14-.43c-.26-.83-.54-1.5-.84-2.04-.42-.78-.91-1.34-1.54-1.77l-.1-.07c-.47-.34-1.02-.59-1.72-.79-.2-.05-.38-.09-.58-.13-.27-.04-.55-.06-.86-.09v-.02l-.71-.04h-.26s-.15-.02-.35-.02ZM6.47 11.87a7 7 0 0 1 4.18 1.35c1.79 1.28 3.01 4.22 2.71 6.55-.28 2.22-1.19 4.05-2.1 5.73l-1.04 1.91c-.83 1.54-1.42 2.68-1.97 3.92-1.18 2.73-1.73 5.17-1.62 7.24.08 1.46.32 2.61.8 3.71.41.95.89 1.75 1.47 2.47l.69-.35c-.24-.95-.38-1.95-.42-2.96-.04-.64-.07-1.13 0-1.69.17-3.81 1.75-7.38 4.45-10.09 2.03-2.08 4.86-3.65 7.78-4.29l.16-.04.09-.14c1.2-1.94 1.99-4.1 2.28-6.26l.13-1.51v-1.1c-.18-4.34-2.31-8.01-5.69-9.83-1.6-.86-3.32-1.31-4.99-1.31-2.12 0-4.1.74-5.57 2.1-1.12 1.03-1.99 2.55-2.37 4.15l-.13.53.54-.04c.21-.01.42-.03.61-.03Z" class="cls-1"/><path d="M41.11 29.01c-.3-.3-.44-.65-.44-1.07s.15-.78.44-1.07.65-.44 1.07-.44.78.15 1.07.44.44.65.44 1.07-.15.78-.44 1.07-.65.44-1.07.44-.78-.15-1.07-.44" class="cls-1"/></svg>